<svg viewBox="0 0 24 24"
     xmlns="http://www.w3.org/2000/svg"
     class="kirk-icon"
     role="img"
     aria-hidden="true"
     style="height: var(--_1gzv7bh3w); width: var(--_1gzv7bh3w); fill: hsla(197, 100%, 48%, 1);">
    <g color="hsla(197, 100%, 48%, 1)">
        <path fill="hsla(197, 100%, 48%, 1)" fill-rule="evenodd"
              d="M2.95454 10.6363c0-4.2425 3.43927-7.68177 7.68186-7.68177 4.2425 0 7.6818 3.43927 7.6818 7.68177 0 4.2426-3.4393 7.6819-7.6818 7.6819-4.24259 0-7.68186-3.4393-7.68186-7.6819Zm7.68186-8.68177c-4.79487 0-8.68186 3.88698-8.68186 8.68177 0 4.7949 3.88699 8.6819 8.68186 8.6819 2.2175 0 4.2408-.8314 5.7753-2.1995l4.7802 4.7803c.1953.1953.5118.1953.7071 0 .1953-.1953.1953-.5119 0-.7071l-4.7802-4.7803c1.368-1.5344 2.1994-3.5578 2.1994-5.7753 0-4.79479-3.887-8.68177-8.6818-8.68177Z"
              clip-rule="evenodd"></path>
    </g>
</svg>