<svg viewBox="0 0 24 24"
     xmlns="http://www.w3.org/2000/svg"
     class="kirk-icon"
     role="img"
     aria-hidden="true"
     style="height:var(--_1gzv7bh3w);width:var(--_1gzv7bh3w);fill:hsla(189, 13%, 50%, 1)">
    <g color="hsla(189, 13%, 50%, 1)">
        <path fill-rule="evenodd" clip-rule="evenodd"
              d="M8 5V4C6.34315 4 5 5.34315 5 7V8H21V7C21 5.34315 19.6569 4 18 4V5H17V4H9V5H8ZM5 11.5997V9H21V13.8541C21 13.9028 20.9988 13.9515 20.9965 14H17.5C16.1193 14 15 15.1193 15 16.5V20H11.7428C12.5282 19.0491 13 17.8296 13 16.5C13 13.4624 10.5376 11 7.5 11C6.59978 11 5.75007 11.2163 5 11.5997ZM22 13.8541V9V8V7C22 4.79086 20.2091 3 18 3V2H17V3H9V2H8V3C5.79086 3 4 4.79086 4 7V12.2572C2.7785 13.266 2 14.7921 2 16.5C2 19.5376 4.46243 22 7.5 22C8.67741 22 9.7684 21.63 10.6631 21H15.0549C16.1615 21 17.2187 20.5416 17.9749 19.7337L20.9201 16.5878C21.6139 15.8466 22 14.8693 22 13.8541ZM16 19.8472C16.4703 19.6911 16.8995 19.4193 17.2449 19.0503L20.1901 15.9043C20.4393 15.6381 20.6356 15.3312 20.7725 15H17.5C16.6716 15 16 15.6716 16 16.5V19.8472ZM7.5 21C9.98528 21 12 18.9853 12 16.5C12 14.0147 9.98528 12 7.5 12C5.01472 12 3 14.0147 3 16.5C3 18.9853 5.01472 21 7.5 21ZM7 16V13H8V16H10V17H7V16Z"
              fill="currentColor"></path>
    </g>
</svg>