<svg viewBox="0 0 24 24"
     xmlns="http://www.w3.org/2000/svg"
     class="kirk-icon"
     role="img"
     aria-hidden="true"
     style="height: var(--_1gzv7bh3w); width: var(--_1gzv7bh3w); fill: var(--_1gzv7bhc);">
    <g color="hsla(189, 13%, 50%, 1)">
        <path d="M23.5,1h-15C8.224,1,8,1.224,8,1.5v15.882C7.266,16.542,6.2,16,5,16c-2.206,0-4,1.794-4,4s1.794,4,4,4s4-1.794,4-4V8h14v7.382C22.267,14.542,21.2,14,20,14c-2.206,0-4,1.794-4,4s1.794,4,4,4s4-1.794,4-4V1.5C24,1.224,23.776,1,23.5,1zM5,23c-1.654,0-3-1.346-3-3s1.346-3,3-3s3,1.346,3,3S6.654,23,5,23z M20,21c-1.654,0-3-1.346-3-3s1.346-3,3-3s3,1.346,3,3S21.654,21,20,21z M9,7V2h14v5H9z"
              fill="hsla(189, 13%, 50%, 1)"></path>
        <g fill-rule="nonzero" stroke-linecap="round" stroke-linejoin="round">
            <path stroke="hsla(0, 0%, 100%, 1);" d="M1,24.5 L23.5,2"></path>
            <path stroke="hsla(189, 13%, 50%, 1)" d="M1,23.5 L23.5,1"></path>
        </g>
    </g>
</svg>