<svg xmlns="http://www.w3.org/2000/svg"
     width="145"
     height="78"
     viewBox="0 0 580 315"
     version="1.1">
    <path d="M 264 52.917 C 264 53.421, 264.563 54.062, 265.250 54.341 C 266.194 54.723, 266.133 55.130, 265 56 C 263.867 56.870, 263.806 57.277, 264.750 57.659 C 266.524 58.379, 266.301 60, 264.429 60 C 261.905 60, 260 62.607, 260 66.061 C 260 68.061, 259.219 69.943, 257.922 71.068 C 256.656 72.166, 255.972 73.775, 256.172 75.185 C 256.352 76.458, 255.713 78.287, 254.750 79.250 C 252.605 81.395, 252.531 82.606, 254.500 83.362 C 255.603 83.785, 256.008 83.217, 256.032 81.219 C 256.063 78.583, 256.110 78.561, 257.566 80.488 C 258.489 81.709, 258.667 82.611, 258.028 82.824 C 257.456 83.015, 257.249 83.594, 257.568 84.110 C 257.887 84.627, 257.563 84.926, 256.848 84.775 C 256.126 84.622, 255.370 85.613, 255.149 87 C 254.779 89.323, 254.694 89.358, 253.946 87.500 C 253.146 85.512, 253.140 85.513, 253.070 87.527 C 253.032 88.643, 253.779 90.668, 254.732 92.027 C 255.684 93.387, 256.322 94.650, 256.148 94.833 C 255.975 95.017, 256.148 95.467, 256.533 95.833 C 256.919 96.200, 256.924 95.055, 256.546 93.288 C 255.949 90.502, 256.319 89.615, 259.329 86.604 C 261.238 84.695, 262.508 82.841, 262.150 82.483 C 261.793 82.126, 261.950 81.924, 262.500 82.035 C 264.868 82.513, 265.830 81.809, 266.992 78.750 C 267.671 76.963, 268.823 74.160, 269.552 72.521 C 270.536 70.311, 270.582 69.359, 269.730 68.833 C 269.099 68.443, 268.635 66.409, 268.700 64.312 C 268.764 62.215, 268.600 61.288, 268.335 62.250 C 268.070 63.212, 266.986 64, 265.927 64 C 263.825 64, 263.285 62.405, 265.173 61.776 C 266.901 61.200, 267.067 52, 265.349 52 C 264.607 52, 264 52.413, 264 52.917 M 291 56.164 C 291 57.202, 298.498 65, 299.496 65 C 299.812 65, 299.645 64.213, 299.125 63.250 C 297.850 60.889, 291 54.915, 291 56.164 M 258 73 C 258 73.550, 258.927 74, 260.059 74 C 261.191 74, 261.840 73.550, 261.500 73 C 261.160 72.450, 260.234 72, 259.441 72 C 258.648 72, 258 72.450, 258 73 M 242.418 81.117 C 241.979 82.978, 241.716 84.871, 241.834 85.324 C 241.953 85.778, 241.638 85.894, 241.134 85.583 C 240.631 85.272, 239.925 86.589, 239.564 88.509 C 239.204 90.429, 238.451 92, 237.892 92 C 237.332 92, 236.954 92.787, 237.052 93.750 C 237.431 97.475, 237.014 98.237, 234.901 97.684 C 232.964 97.178, 232.858 97.418, 233.528 100.818 C 233.927 102.843, 234.421 105.812, 234.626 107.417 C 235.082 110.976, 235.566 111.574, 236.345 109.543 C 236.671 108.694, 236.515 108, 236 108 C 235.485 108, 235.321 107.328, 235.636 106.506 C 235.952 105.684, 236.612 105.260, 237.105 105.565 C 237.597 105.869, 238 105.443, 238 104.618 C 238 103.793, 237.550 102.840, 237 102.500 C 236.450 102.160, 236.032 101.121, 236.070 100.191 C 236.127 98.822, 236.297 98.881, 236.960 100.500 C 237.741 102.406, 237.830 102.382, 238.845 100 C 239.430 98.625, 240.770 96.420, 241.822 95.100 C 242.874 93.780, 243.517 91.868, 243.251 90.850 C 242.984 89.833, 243.269 89, 243.883 89 C 245.210 89, 245.377 81.144, 244.093 79.117 C 243.453 78.106, 243.003 78.643, 242.418 81.117"
          stroke="none" fill="#07439b" fill-rule="evenodd"/>
    <path d="M 289.592 48.741 C 287.801 50.532, 289.431 53.939, 293.959 57.866 C 296.687 60.232, 299.192 63.030, 299.527 64.084 C 300.025 65.655, 301.090 66, 305.445 66 C 309.181 66, 311.162 65.507, 312.128 64.336 C 313.361 62.841, 313.290 62.784, 311.431 63.774 C 310.294 64.380, 308.719 64.774, 307.931 64.649 C 305.931 64.332, 302.800 62.456, 302.924 61.648 C 303.132 60.290, 296.693 54.072, 295.708 54.680 C 295.149 55.026, 294.973 54.853, 295.318 54.295 C 296.022 53.156, 290.517 47.816, 289.592 48.741 M 269.371 72.750 C 268.757 74.263, 267.692 76.963, 267.006 78.750 C 265.831 81.810, 264.866 82.513, 262.500 82.035 C 261.950 81.924, 261.793 82.126, 262.150 82.483 C 262.507 82.841, 261.238 84.695, 259.329 86.604 C 256.408 89.525, 255.961 90.545, 256.508 93.038 C 256.944 95.022, 256.767 96, 255.972 96 C 255.320 96, 255.028 95.369, 255.324 94.598 C 255.948 92.971, 255.110 91.814, 253.864 92.584 C 253.027 93.101, 255.528 99, 256.585 99 C 256.878 99, 256.840 98.550, 256.500 98 C 256.160 97.450, 256.389 97, 257.008 97 C 257.652 97, 257.881 97.798, 257.543 98.865 C 257.127 100.175, 258.334 102.267, 261.606 105.906 C 266.659 111.527, 272.833 115.613, 271.662 112.562 C 271.075 111.031, 272.567 107.198, 274.237 105.949 C 274.642 105.646, 275.130 103.963, 275.322 102.209 C 275.514 100.455, 276.645 98.175, 277.836 97.142 C 280.620 94.728, 280.588 93.719, 277.750 94.423 C 276.512 94.730, 276.063 94.723, 276.750 94.407 C 277.438 94.092, 278 92.570, 278 91.025 C 278 88.830, 278.572 88.073, 280.618 87.560 C 282.289 87.140, 283.825 87.421, 284.868 88.335 C 286.624 89.876, 294.460 94, 295.632 94 C 296.023 94, 294.221 92.595, 291.628 90.877 C 289.034 89.159, 285.202 86.009, 283.112 83.877 C 281.022 81.745, 278.744 80, 278.049 80 C 277.318 80, 277.037 79.346, 277.382 78.448 C 277.711 77.590, 277.551 77.159, 277.024 77.485 C 276.500 77.809, 274.925 76.257, 273.523 74.037 C 272.122 71.817, 270.865 70, 270.732 70 C 270.598 70, 269.985 71.237, 269.371 72.750 M 245.118 82.750 C 245.048 86.462, 244.564 89, 243.927 89 C 243.336 89, 243.034 89.787, 243.255 90.750 C 243.477 91.713, 242.689 93.850, 241.505 95.500 C 238.787 99.289, 237.770 102, 239.067 102 C 239.711 102, 239.682 102.725, 238.985 104.028 C 238.388 105.143, 237.519 105.821, 237.055 105.534 C 236.590 105.247, 235.963 105.655, 235.661 106.441 C 235.359 107.227, 235.523 108.012, 236.024 108.185 C 236.563 108.371, 236.547 109.113, 235.983 110 C 235.192 111.247, 235.009 111.162, 234.900 109.500 C 234.828 108.400, 234.665 107.050, 234.537 106.500 C 234.409 105.950, 234.236 104.487, 234.152 103.250 C 234.069 102.013, 233.550 101, 233 101 C 231.750 101, 231.676 104.682, 232.911 105.445 C 233.412 105.755, 233.713 106.752, 233.579 107.662 C 233.081 111.056, 235.931 120.184, 239.456 126.487 C 241.459 130.069, 243.188 132.999, 243.299 132.998 C 243.410 132.997, 243.603 131.538, 243.729 129.755 C 243.855 127.973, 244.417 126.361, 244.979 126.174 C 245.540 125.987, 246 125.196, 246 124.417 C 246 123.638, 246.450 123, 247 123 C 247.550 123, 248 121.912, 248 120.583 C 248 119.254, 248.446 118.017, 248.991 117.833 C 249.537 117.650, 250.082 116.295, 250.204 114.822 C 250.325 113.349, 250.748 112.344, 251.143 112.588 C 252.320 113.316, 253.308 110.908, 252.261 109.861 C 251.232 108.832, 251.772 104, 252.917 104 C 253.292 104, 254.196 104.563, 254.925 105.250 C 255.654 105.938, 255.097 104.700, 253.688 102.500 C 250.717 97.865, 247.177 88.027, 246.031 81.225 L 245.235 76.500 245.118 82.750 M 217.750 220.706 C 218.988 220.944, 221.012 220.944, 222.250 220.706 C 223.488 220.467, 222.475 220.272, 220 220.272 C 217.525 220.272, 216.512 220.467, 217.750 220.706 M 295.750 220.706 C 296.988 220.944, 299.012 220.944, 300.250 220.706 C 301.488 220.467, 300.475 220.272, 298 220.272 C 295.525 220.272, 294.512 220.467, 295.750 220.706 M 344.441 252 C 344.441 267.675, 344.579 274.087, 344.748 266.250 C 344.917 258.412, 344.917 245.587, 344.748 237.750 C 344.579 229.912, 344.441 236.325, 344.441 252 M 530.300 251 C 530.300 254.025, 530.487 255.262, 530.716 253.750 C 530.945 252.238, 530.945 249.762, 530.716 248.250 C 530.487 246.738, 530.300 247.975, 530.300 251 M 263.252 251.500 C 263.263 253.700, 263.468 254.482, 263.707 253.238 C 263.946 251.994, 263.937 250.194, 263.687 249.238 C 263.437 248.282, 263.241 249.300, 263.252 251.500 M 500.871 267.273 C 501.298 267.699, 509.939 267.923, 520.073 267.771 L 538.500 267.496 519.298 266.998 C 508.737 266.724, 500.445 266.848, 500.871 267.273 M 446.750 267.744 C 451.288 267.929, 458.712 267.929, 463.250 267.744 C 467.788 267.559, 464.075 267.407, 455 267.407 C 445.925 267.407, 442.212 267.559, 446.750 267.744 M 218.250 269.689 C 219.213 269.941, 220.787 269.941, 221.750 269.689 C 222.713 269.438, 221.925 269.232, 220 269.232 C 218.075 269.232, 217.287 269.438, 218.250 269.689 M 473.286 274.500 C 473.294 277.250, 473.488 278.256, 473.718 276.736 C 473.947 275.216, 473.941 272.966, 473.704 271.736 C 473.467 270.506, 473.279 271.750, 473.286 274.500 M 102.776 281.733 C 105.128 281.945, 108.728 281.942, 110.776 281.727 C 112.824 281.512, 110.900 281.339, 106.500 281.343 C 102.100 281.346, 100.424 281.522, 102.776 281.733 M 129.728 281.722 C 131.503 281.943, 134.653 281.946, 136.728 281.730 C 138.802 281.513, 137.350 281.333, 133.500 281.328 C 129.650 281.324, 127.952 281.501, 129.728 281.722 M 354.250 281.743 C 358.512 281.931, 365.488 281.931, 369.750 281.743 C 374.012 281.556, 370.525 281.402, 362 281.402 C 353.475 281.402, 349.988 281.556, 354.250 281.743 M 434.308 281.748 C 441.353 281.920, 452.603 281.919, 459.308 281.747 C 466.014 281.574, 460.250 281.433, 446.500 281.434 C 432.750 281.434, 427.264 281.576, 434.308 281.748 M 498.310 281.748 C 505.905 281.918, 518.055 281.918, 525.310 281.747 C 532.564 281.576, 526.350 281.437, 511.500 281.438 C 496.650 281.438, 490.714 281.578, 498.310 281.748"
          stroke="none" fill="#0a4797" fill-rule="evenodd"/>
    <path d="M 291.238 45.990 C 290.154 47.726, 290.375 48.319, 292.970 50.631 C 294.606 52.088, 295.662 53.737, 295.318 54.295 C 294.973 54.853, 295.149 55.026, 295.708 54.680 C 296.729 54.049, 302.634 59.783, 302.547 61.320 C 302.494 62.247, 305.799 64.311, 307.861 64.639 C 309.822 64.951, 313.800 62.963, 314.414 61.365 C 314.753 60.480, 314.202 60, 312.846 60 C 311.583 60, 307.514 56.836, 302.560 52 C 298.052 47.600, 293.940 44, 293.422 44 C 292.905 44, 291.922 44.896, 291.238 45.990 M 245.272 73 C 245.272 75.475, 245.467 76.487, 245.706 75.250 C 245.944 74.013, 245.944 71.987, 245.706 70.750 C 245.467 69.513, 245.272 70.525, 245.272 73 M 279.750 87.689 C 278.601 87.990, 278 89.123, 278 90.990 C 278 92.554, 277.438 94.092, 276.750 94.407 C 276.063 94.723, 276.512 94.730, 277.750 94.423 C 280.588 93.719, 280.620 94.728, 277.836 97.142 C 276.645 98.175, 275.514 100.455, 275.322 102.209 C 275.130 103.963, 274.642 105.646, 274.237 105.949 C 272.540 107.217, 271.079 111.042, 271.686 112.625 C 272.164 113.869, 271.983 114.108, 271.015 113.510 C 270.149 112.974, 269.930 113.078, 270.383 113.810 C 271.099 114.969, 288.970 125.333, 292.500 126.636 C 294.341 127.316, 294.381 127.225, 293 125.495 C 292.127 124.402, 292.023 123.930, 292.750 124.367 C 293.438 124.780, 294 124.973, 294 124.795 C 294 124.617, 294.873 122.083, 295.941 119.163 C 297.008 116.243, 297.635 113.212, 297.334 112.427 C 297.016 111.601, 297.389 111, 298.217 111 C 299.049 111, 300.275 109.009, 301.142 106.250 L 302.635 101.500 307.067 101.591 C 311.321 101.678, 310.969 101.429, 298.365 95.432 C 291.141 91.994, 284.927 88.691, 284.556 88.091 C 283.866 86.974, 282.822 86.886, 279.750 87.689 M 250 95.383 C 250 96.456, 252.975 102, 253.551 102 C 253.826 102, 253.308 100.537, 252.399 98.750 C 250.542 95.100, 250 94.339, 250 95.383 M 253.353 103.740 C 251.892 104.708, 251.313 108.123, 252.334 109.750 C 253.197 111.126, 252.287 113.295, 251.143 112.588 C 250.748 112.344, 250.325 113.349, 250.204 114.822 C 250.082 116.295, 249.537 117.650, 248.991 117.833 C 248.446 118.017, 248 119.254, 248 120.583 C 248 121.912, 247.550 123, 247 123 C 246.450 123, 246 123.638, 246 124.417 C 246 125.196, 245.540 125.987, 244.979 126.174 C 244.417 126.361, 243.855 127.930, 243.729 129.660 C 243.598 131.455, 243.071 132.541, 242.500 132.190 C 240.314 130.846, 248.395 140.177, 252.696 143.964 C 258.033 148.662, 260 149.056, 260 145.429 C 260 144.014, 260.634 142.223, 261.409 141.448 C 262.184 140.674, 263.123 138.231, 263.497 136.020 C 263.870 133.809, 264.586 132, 265.088 132 C 265.590 132, 266 131.176, 266 130.169 C 266 129.163, 267.078 126.210, 268.395 123.607 C 269.713 121.005, 270.578 119.089, 270.317 119.349 C 269.751 119.915, 259.342 109.662, 256.500 105.740 C 255.297 104.080, 254.043 103.282, 253.353 103.740 M 362.405 251.500 C 362.406 260.300, 362.559 263.766, 362.745 259.203 C 362.930 254.639, 362.929 247.439, 362.742 243.203 C 362.555 238.966, 362.404 242.700, 362.405 251.500 M 500.252 262.500 C 500.263 264.700, 500.468 265.482, 500.707 264.238 C 500.946 262.994, 500.937 261.194, 500.687 260.238 C 500.437 259.282, 500.241 260.300, 500.252 262.500 M 56.750 281.706 C 57.987 281.944, 60.013 281.944, 61.250 281.706 C 62.487 281.467, 61.475 281.272, 59 281.272 C 56.525 281.272, 55.513 281.467, 56.750 281.706"
          stroke="none" fill="#0d5aa2" fill-rule="evenodd"/>
    <path d="M 295.415 42.147 C 293.482 43.085, 293.968 43.773, 302.082 51.579 C 308.451 57.706, 311.539 60, 313.418 60 C 317.937 60, 316.415 56.654, 308.250 48.639 C 300.414 40.947, 299.177 40.322, 295.415 42.147 M 302.031 103.418 C 301.473 104.887, 300.739 107.193, 300.400 108.544 C 300.061 109.895, 299.109 111, 298.285 111 C 297.398 111, 297.009 111.582, 297.334 112.427 C 297.635 113.212, 297.008 116.243, 295.941 119.163 C 294.873 122.083, 294 124.617, 294 124.795 C 294 124.973, 293.438 124.780, 292.750 124.367 C 292.023 123.930, 292.127 124.402, 293 125.495 C 294.361 127.200, 294.338 127.314, 292.750 126.719 C 289.702 125.576, 290.848 126.721, 295.457 129.422 C 301.253 132.818, 309.032 141.867, 311.263 147.807 C 312.232 150.388, 312.837 151.488, 312.606 150.250 C 312.376 149.012, 312.489 148, 312.857 148 C 313.225 148, 314.057 145.767, 314.705 143.038 C 315.354 140.309, 316.877 136.733, 318.090 135.092 C 319.304 133.450, 320.385 130.846, 320.492 129.304 C 320.599 127.762, 320.757 125.713, 320.843 124.750 C 320.930 123.787, 321.635 123, 322.412 123 C 323.333 123, 323.726 122.111, 323.543 120.440 C 323.388 119.033, 323.878 117.265, 324.631 116.512 C 325.384 115.759, 326 114.205, 326 113.058 C 326 111.037, 326.115 111.021, 329.750 112.540 C 331.813 113.401, 334.653 115.095, 336.062 116.303 C 337.472 117.511, 336.703 116.700, 334.354 114.500 C 328.129 108.669, 315.452 102.394, 307.862 101.387 C 303.310 100.783, 302.991 100.895, 302.031 103.418 M 262 112.500 C 263.866 114.425, 265.617 116, 265.892 116 C 266.167 116, 264.866 114.425, 263 112.500 C 261.134 110.575, 259.383 109, 259.108 109 C 258.833 109, 260.134 110.575, 262 112.500 M 268.814 118.410 C 269.486 119.769, 269.223 121.501, 267.901 124.410 C 266.880 126.660, 266.034 129.287, 266.022 130.250 C 266.010 131.213, 265.590 132, 265.088 132 C 264.586 132, 263.870 133.809, 263.497 136.020 C 263.123 138.231, 262.184 140.674, 261.409 141.448 C 260.634 142.223, 260 144.014, 260 145.429 C 260 147.946, 258.392 148.766, 256.429 147.250 C 255.895 146.838, 256.592 147.528, 257.979 148.783 C 261.260 151.755, 273.522 157.707, 278 158.501 C 280.003 158.856, 280.983 158.760, 280.292 158.278 C 279.386 157.645, 279.720 156.106, 281.627 152.121 C 283.026 149.198, 284.345 145.422, 284.560 143.728 C 284.774 142.035, 285.450 140.340, 286.061 139.962 C 286.672 139.585, 287.029 138.426, 286.853 137.388 C 286.678 136.349, 287.297 134.411, 288.230 133.080 L 289.926 130.660 281.017 125.242 C 276.116 122.262, 271.877 119.976, 271.596 120.162 C 271.316 120.348, 270.362 119.600, 269.478 118.500 C 268.017 116.683, 267.956 116.674, 268.814 118.410 M 51.440 251.500 C 51.440 266.900, 51.579 273.060, 51.748 265.189 C 51.917 257.319, 51.917 244.719, 51.747 237.189 C 51.578 229.660, 51.439 236.100, 51.440 251.500 M 149.206 247.741 C 152.895 247.932, 159.195 247.934, 163.206 247.743 C 167.218 247.553, 164.200 247.396, 156.500 247.395 C 148.800 247.393, 145.518 247.549, 149.206 247.741"
          stroke="none" fill="#1776ae" fill-rule="evenodd"/>
    <path d="M 275.537 36.527 C 269.321 47.135, 269.148 60.283, 275.066 72.500 C 281.307 85.386, 288.963 90.939, 321.952 106.511 C 331.217 110.884, 339.602 118.115, 342.237 124.003 C 344.926 130.015, 346.034 136.394, 345.009 139.968 C 344.082 143.202, 344.097 143.222, 346.067 141.440 C 350.522 137.408, 352.257 133.202, 351.513 128.239 C 350.084 118.710, 343.981 110.561, 333.875 104.688 C 331.469 103.290, 324.775 100.275, 319 97.987 C 295.653 88.740, 284.263 80.462, 278.427 68.500 C 275.786 63.086, 275.500 61.523, 275.500 52.500 C 275.500 43.440, 275.758 42.042, 278.250 37.624 C 281.444 31.961, 281.435 32, 279.595 32 C 278.822 32, 276.996 34.037, 275.537 36.527 M 316.136 56.846 C 316.061 58.136, 315.065 60.505, 313.921 62.111 C 308.572 69.624, 296.965 70.102, 291.248 63.046 C 290.147 61.687, 290.070 61.715, 290.615 63.277 C 290.955 64.254, 293.229 66.222, 295.668 67.651 C 302.934 71.909, 310.928 69.683, 315.324 62.177 C 316.327 60.464, 316.950 58.036, 316.710 56.781 L 316.272 54.500 316.136 56.846 M 56.776 221.733 C 59.128 221.945, 62.728 221.942, 64.776 221.727 C 66.824 221.512, 64.900 221.339, 60.500 221.343 C 56.100 221.346, 54.424 221.522, 56.776 221.733 M 99.750 221.732 C 102.087 221.943, 105.912 221.943, 108.250 221.732 C 110.587 221.522, 108.675 221.349, 104 221.349 C 99.325 221.349, 97.412 221.522, 99.750 221.732 M 124.200 222.200 C 123.312 223.088, 123.059 230.817, 123.227 251.950 L 123.454 280.500 123.977 251.500 L 124.500 222.500 151.500 221.975 L 178.500 221.451 151.950 221.225 C 132.374 221.059, 125.085 221.315, 124.200 222.200 M 353.750 221.744 C 358.288 221.929, 365.712 221.929, 370.250 221.744 C 374.788 221.559, 371.075 221.407, 362 221.407 C 352.925 221.407, 349.212 221.559, 353.750 221.744 M 425.776 221.733 C 428.128 221.945, 431.728 221.942, 433.776 221.727 C 435.824 221.512, 433.900 221.339, 429.500 221.343 C 425.100 221.346, 423.424 221.522, 425.776 221.733 M 497.250 221.748 C 504.813 221.917, 517.188 221.917, 524.750 221.748 C 532.313 221.578, 526.125 221.439, 511 221.439 C 495.875 221.439, 489.688 221.578, 497.250 221.748 M 438.426 244.500 C 438.427 256.600, 438.571 261.413, 438.747 255.195 C 438.923 248.977, 438.922 239.077, 438.746 233.195 C 438.569 227.313, 438.425 232.400, 438.426 244.500 M 540.300 229 C 540.300 232.025, 540.487 233.262, 540.716 231.750 C 540.945 230.238, 540.945 227.762, 540.716 226.250 C 540.487 224.738, 540.300 225.975, 540.300 229 M 218.250 234.689 C 219.213 234.941, 220.787 234.941, 221.750 234.689 C 222.713 234.438, 221.925 234.232, 220 234.232 C 218.075 234.232, 217.287 234.438, 218.250 234.689 M 296.250 234.689 C 297.212 234.941, 298.788 234.941, 299.750 234.689 C 300.712 234.438, 299.925 234.232, 298 234.232 C 296.075 234.232, 295.288 234.438, 296.250 234.689 M 366.750 235.723 C 368.538 235.945, 371.462 235.945, 373.250 235.723 C 375.038 235.502, 373.575 235.320, 370 235.320 C 366.425 235.320, 364.962 235.502, 366.750 235.723 M 151.199 236.744 C 155.984 236.927, 164.084 236.928, 169.199 236.746 C 174.315 236.564, 170.400 236.414, 160.500 236.413 C 150.600 236.412, 146.415 236.561, 151.199 236.744 M 510.302 236.746 C 515.693 236.926, 524.243 236.925, 529.302 236.744 C 534.361 236.563, 529.950 236.416, 519.500 236.417 C 509.050 236.418, 504.911 236.566, 510.302 236.746 M 72.264 243.718 C 73.784 243.947, 76.034 243.941, 77.264 243.704 C 78.494 243.467, 77.250 243.279, 74.500 243.286 C 71.750 243.294, 70.744 243.488, 72.264 243.718 M 507.750 243.743 C 511.738 243.932, 518.263 243.932, 522.250 243.743 C 526.237 243.553, 522.975 243.397, 515 243.397 C 507.025 243.397, 503.762 243.553, 507.750 243.743 M 333.320 252 C 333.320 255.575, 333.502 257.038, 333.723 255.250 C 333.945 253.463, 333.945 250.537, 333.723 248.750 C 333.502 246.963, 333.320 248.425, 333.320 252 M 172.310 254.500 C 172.315 257.800, 172.502 259.029, 172.725 257.232 C 172.947 255.435, 172.943 252.735, 172.715 251.232 C 172.486 249.729, 172.304 251.200, 172.310 254.500 M 204.232 252 C 204.232 253.925, 204.438 254.713, 204.689 253.750 C 204.941 252.787, 204.941 251.213, 204.689 250.250 C 204.438 249.287, 204.232 250.075, 204.232 252 M 389.232 252 C 389.232 253.925, 389.438 254.713, 389.689 253.750 C 389.941 252.787, 389.941 251.213, 389.689 250.250 C 389.438 249.287, 389.232 250.075, 389.232 252 M 72.768 258.725 C 74.565 258.947, 77.265 258.943, 78.768 258.715 C 80.271 258.486, 78.800 258.304, 75.500 258.310 C 72.200 258.315, 70.971 258.502, 72.768 258.725 M 507.750 258.743 C 511.738 258.932, 518.263 258.932, 522.250 258.743 C 526.237 258.553, 522.975 258.397, 515 258.397 C 507.025 258.397, 503.762 258.553, 507.750 258.743 M 540.300 274 C 540.300 277.025, 540.487 278.262, 540.716 276.750 C 540.945 275.238, 540.945 272.762, 540.716 271.250 C 540.487 269.738, 540.300 270.975, 540.300 274 M 217.750 283.706 C 218.988 283.944, 221.012 283.944, 222.250 283.706 C 223.488 283.467, 222.475 283.272, 220 283.272 C 217.525 283.272, 216.512 283.467, 217.750 283.706 M 296.762 283.707 C 298.006 283.946, 299.806 283.937, 300.762 283.687 C 301.718 283.437, 300.700 283.241, 298.500 283.252 C 296.300 283.263, 295.518 283.468, 296.762 283.707"
          stroke="none" fill="#cf5699" fill-rule="evenodd"/>
    <path d="M 268.765 37.843 C 252.815 46.503, 249.434 52.612, 249.582 72.500 C 249.649 81.440, 250.069 84.437, 251.825 88.500 L 253.986 93.500 253.482 89.500 C 253.126 86.671, 253.238 86.085, 253.865 87.500 C 254.696 89.377, 254.775 89.346, 255.149 87 C 255.370 85.613, 256.126 84.622, 256.848 84.775 C 257.563 84.926, 257.887 84.627, 257.568 84.110 C 257.249 83.594, 257.456 83.015, 258.028 82.824 C 258.667 82.611, 258.489 81.709, 257.566 80.488 C 256.110 78.561, 256.063 78.583, 256.032 81.219 C 256.008 83.217, 255.603 83.785, 254.500 83.362 C 252.531 82.606, 252.605 81.395, 254.750 79.250 C 255.713 78.287, 256.352 76.458, 256.172 75.185 C 255.972 73.775, 256.656 72.166, 257.922 71.068 C 259.219 69.943, 260 68.061, 260 66.061 C 260 62.607, 261.905 60, 264.429 60 C 266.301 60, 266.524 58.379, 264.750 57.659 C 263.806 57.277, 263.867 56.870, 265 56 C 266.133 55.130, 266.194 54.723, 265.250 54.341 C 263.581 53.663, 263.652 52, 265.349 52 C 267.067 52, 266.901 61.200, 265.173 61.776 C 263.253 62.416, 263.842 64, 266 64 C 267.212 64, 268.027 63.311, 268.067 62.250 C 268.105 61.288, 268.684 62.525, 269.356 65 C 270.606 69.609, 276.804 80, 278.302 80 C 278.761 80, 278.269 78.763, 277.209 77.250 C 274.701 73.670, 271.398 63.849, 270.536 57.404 C 269.775 51.710, 271.835 42.794, 275.194 37.250 C 276.277 35.462, 276.789 34.042, 276.332 34.093 C 275.874 34.145, 272.469 35.832, 268.765 37.843 M 289 55.991 C 289 64.111, 299.576 70.405, 307.500 67 C 309.011 66.351, 308.355 66.123, 304.821 66.070 C 300.702 66.008, 299.597 65.477, 295.571 61.620 C 293.057 59.211, 291 56.762, 291 56.179 C 291 55.595, 290.550 54.840, 290 54.500 C 289.450 54.160, 289 54.831, 289 55.991 M 244.271 59.311 C 237.298 69.495, 231.929 85.982, 232.162 96.500 C 232.223 99.250, 232.461 100.536, 232.692 99.358 C 232.995 97.806, 233.646 97.356, 235.055 97.725 C 237.001 98.233, 237.423 97.393, 237.052 93.750 C 236.954 92.787, 237.332 92, 237.892 92 C 238.451 92, 239.204 90.429, 239.564 88.509 C 239.925 86.589, 240.631 85.272, 241.134 85.583 C 241.638 85.894, 241.953 85.778, 241.834 85.324 C 241.716 84.871, 241.979 82.978, 242.418 81.117 C 243.003 78.643, 243.453 78.106, 244.093 79.117 C 244.641 79.982, 244.984 77.692, 245.009 73 C 245.031 68.875, 245.504 63.528, 246.059 61.118 C 246.615 58.708, 246.931 56.598, 246.762 56.429 C 246.593 56.260, 245.473 57.557, 244.271 59.311 M 258 73 C 258 73.550, 258.927 74, 260.059 74 C 261.191 74, 261.840 73.550, 261.500 73 C 261.160 72.450, 260.234 72, 259.441 72 C 258.648 72, 258 72.450, 258 73 M 236.148 100 C 236.101 100.825, 236.724 102.374, 237.532 103.441 C 238.812 105.134, 239 105.166, 239 103.691 C 239 102.761, 238.583 102, 238.073 102 C 237.564 102, 236.941 101.213, 236.689 100.250 C 236.369 99.025, 236.207 98.950, 236.148 100 M 365.728 268.722 C 367.503 268.943, 370.653 268.946, 372.728 268.730 C 374.802 268.513, 373.350 268.333, 369.500 268.328 C 365.650 268.324, 363.952 268.501, 365.728 268.722"
          stroke="none" fill="#08419a" fill-rule="evenodd"/>
    <path d="M 295.441 41.470 C 293.686 42.799, 293.813 42.825, 296.754 41.749 C 299.976 40.570, 300.080 40.630, 307.278 47.779 C 315.393 55.840, 317.609 56.796, 316.610 51.802 C 315.741 47.457, 313.512 44.283, 309.696 41.956 C 305.866 39.621, 298.227 39.360, 295.441 41.470 M 231.300 97 C 231.300 100.025, 231.487 101.263, 231.716 99.750 C 231.945 98.237, 231.945 95.763, 231.716 94.250 C 231.487 92.737, 231.300 93.975, 231.300 97 M 326 113.058 C 326 114.205, 325.384 115.759, 324.631 116.512 C 323.878 117.265, 323.388 119.033, 323.543 120.440 C 323.726 122.111, 323.333 123, 322.412 123 C 321.635 123, 320.930 123.787, 320.843 124.750 C 320.757 125.713, 320.599 127.762, 320.492 129.304 C 320.385 130.846, 319.335 133.408, 318.159 134.998 C 316.984 136.588, 315.462 140.052, 314.778 142.695 C 314.094 145.338, 312.964 147.860, 312.267 148.300 C 311.570 148.740, 311.007 149.640, 311.015 150.300 C 311.025 151.040, 311.389 150.933, 311.967 150.019 C 312.576 149.055, 312.697 150.539, 312.312 154.269 C 311.925 158.014, 312.088 160, 312.781 160 C 315.436 160, 331.156 152.544, 337.228 148.404 C 342.562 144.768, 344.162 143.073, 344.947 140.229 C 345.993 136.442, 345.008 130.208, 342.463 124.500 C 340.634 120.398, 334.289 114.426, 329.750 112.535 C 326.116 111.022, 326 111.038, 326 113.058 M 277 122.363 C 277 122.652, 279.912 124.633, 283.470 126.764 L 289.941 130.639 288.238 133.070 C 287.301 134.406, 286.678 136.349, 286.853 137.388 C 287.029 138.426, 286.672 139.585, 286.061 139.962 C 285.450 140.340, 284.774 142.035, 284.560 143.728 C 284.345 145.422, 283.026 149.198, 281.627 152.121 C 279.715 156.116, 279.384 157.648, 280.292 158.298 C 281.408 159.096, 278.990 158.778, 273.500 157.405 C 271.953 157.018, 271.840 157.115, 273 157.831 C 278.188 161.036, 304.280 163.799, 307.948 161.532 C 309.527 160.556, 309.213 151.449, 307.455 147.218 C 305.370 142.200, 296.828 133.672, 289.500 129.290 C 286.200 127.316, 282.038 124.832, 280.250 123.769 C 278.462 122.707, 277 122.074, 277 122.363 M 295 129.706 C 296.375 130.693, 299.525 133.282, 302 135.461 L 306.500 139.422 302.768 135.437 C 300.715 133.246, 297.565 130.656, 295.768 129.683 C 292.611 127.973, 292.585 127.974, 295 129.706"
          stroke="none" fill="#249cbe" fill-rule="evenodd"/>
    <path d="M 206.500 222.347 C 196.604 225.605, 189.286 232.466, 186.883 240.740 C 185.179 246.605, 185.144 257.084, 186.809 262.708 C 191.066 277.089, 208.470 285.327, 227.750 282.088 C 236.815 280.565, 241.573 278.360, 246.561 273.373 C 252.132 267.801, 254.234 261.999, 254.301 252 C 254.371 241.643, 251.808 234.866, 245.753 229.396 C 238.978 223.275, 234.021 221.622, 221.500 221.307 C 214.376 221.127, 209.091 221.494, 206.500 222.347 M 283.142 222.947 C 270.020 227.797, 264 236.804, 264 251.588 C 264 269.007, 273.190 279.346, 291.158 282.139 C 297.053 283.056, 300.436 283.056, 305.984 282.140 C 323.222 279.293, 331.887 270.027, 332.768 253.500 C 333.515 239.473, 327.921 229.639, 316.067 224.138 C 308.350 220.558, 291.278 219.940, 283.142 222.947 M 52.667 222.667 C 52.300 223.033, 52 236.308, 52 252.167 L 52 281 60.392 281 C 68.647 281, 68.794 280.957, 69.452 278.335 C 69.820 276.869, 70.061 272.482, 69.987 268.585 C 69.770 257.078, 69.263 258, 75.809 258 C 79.004 258, 82.416 258.583, 83.391 259.297 C 84.366 260.010, 87.564 265.072, 90.498 270.547 L 95.831 280.500 105.416 280.786 C 111.008 280.953, 115 280.676, 115 280.122 C 115 279.599, 112.531 274.520, 109.513 268.835 C 105.812 261.866, 102.531 257.158, 99.436 254.378 L 94.846 250.256 99.363 245.878 C 103.661 241.713, 113 226.305, 113 223.378 C 113 222.323, 111.143 222, 105.082 222 C 100.727 222, 96.448 222.274, 95.574 222.610 C 94.700 222.945, 91.883 227.075, 89.314 231.788 C 83.057 243.267, 82.228 244, 75.500 244 L 70 244 70 234.934 C 70 222.476, 69.655 222, 60.631 222 C 56.618 222, 53.033 222.300, 52.667 222.667 M 124.452 223.263 C 124.186 223.958, 124.087 237.121, 124.234 252.513 L 124.500 280.500 133 280.500 L 141.500 280.500 141.788 271.250 L 142.075 262 155.915 262 C 171.983 262, 172.264 261.856, 171.805 253.831 L 171.500 248.500 156.750 248.223 L 142 247.947 142 241.973 L 142 236 159.800 236 C 172.311 236, 177.957 235.643, 178.800 234.800 C 180.356 233.244, 180.356 224.756, 178.800 223.200 C 177.028 221.428, 125.133 221.489, 124.452 223.263 M 345.750 222.571 C 345.337 222.990, 345 236.308, 345 252.167 L 345 281 363.818 281 C 384.921 281, 389.654 280.122, 397.567 274.741 C 400.642 272.649, 403.395 269.596, 405.329 266.132 C 407.996 261.356, 408.332 259.809, 408.377 252.132 C 408.436 241.954, 406.225 236.243, 400.072 230.684 C 392.820 224.132, 386.986 222.705, 365.500 222.230 C 355.050 221.998, 346.163 222.152, 345.750 222.571 M 421.139 223.333 C 420.291 224.354, 420.041 232.444, 420.234 252.622 L 420.500 280.500 446.750 280.767 L 473 281.033 473 274.540 L 473 268.047 455.750 267.774 L 438.500 267.500 438 245 L 437.500 222.500 429.905 222.211 C 424.307 221.998, 422.002 222.292, 421.139 223.333 M 483.044 223.919 C 481.805 226.234, 481.611 277.839, 482.834 279.766 C 483.458 280.749, 489.890 280.973, 511.569 280.766 L 539.500 280.500 539.500 274.500 L 539.500 268.500 520 268 L 500.500 267.500 500.196 262.777 L 499.893 258.054 514.696 257.777 L 529.500 257.500 529.500 251 L 529.500 244.500 514.750 244.223 L 500 243.947 500 239.973 L 500 236 518.750 235.985 C 529.063 235.976, 538.087 235.597, 538.805 235.142 C 539.699 234.575, 540.013 232.456, 539.805 228.407 L 539.500 222.500 511.794 222.234 C 485.203 221.979, 484.045 222.047, 483.044 223.919 M 211.984 235.824 C 205.156 239.398, 201.804 251.808, 205.364 260.329 C 209.483 270.188, 223.993 272.963, 231.177 265.266 C 236.399 259.671, 237.436 247.834, 233.318 240.822 C 229.575 234.448, 219.239 232.027, 211.984 235.824 M 292.500 234.664 C 289.829 235.380, 286.152 238.842, 284.317 242.371 C 282.121 246.592, 282.335 258.162, 284.685 262.257 C 287.347 266.896, 294.316 270.281, 299.767 269.581 C 309.637 268.315, 313.175 264.119, 313.741 253.012 C 314.171 244.562, 312.569 240.159, 307.791 236.657 C 305.069 234.661, 296.621 233.560, 292.500 234.664 M 362.226 251.750 L 362.500 268.500 371.116 268.415 C 378.155 268.345, 380.384 267.926, 383.298 266.125 C 388.150 263.126, 390.485 256.984, 389.692 249.300 C 388.609 238.810, 383.427 235.004, 370.226 235.002 L 361.952 235 362.226 251.750"
          stroke="none" fill="#000000" fill-rule="evenodd"/>
    <path d="M 0 157.495 L 0 314.990 290.250 314.745 L 580.500 314.500 580.753 157.250 L 581.006 0 290.503 0 L 0 0 0 157.495 M 0.488 158 C 0.488 244.625, 0.606 280.063, 0.750 236.750 C 0.894 193.438, 0.894 122.563, 0.750 79.250 C 0.606 35.938, 0.488 71.375, 0.488 158 M 272.500 33.337 C 265.547 36.345, 256.933 42.103, 253.780 45.850 C 252.322 47.582, 250.649 49, 250.062 49 C 249.476 49, 246.909 51.813, 244.358 55.250 C 216.675 92.553, 231.383 143.679, 274.500 160.022 C 287.690 165.021, 306.010 165.047, 317.500 160.082 C 319.700 159.132, 323.525 157.508, 326 156.475 C 333.131 153.497, 340.002 148.791, 346.750 142.265 L 353 136.219 353 130.297 C 353 118.743, 345.110 108.499, 330.500 101.085 C 326.100 98.852, 321.931 97.020, 321.236 97.013 C 320.541 97.006, 319.191 96.601, 318.236 96.114 C 317.281 95.627, 314.025 94.175, 311 92.888 C 302.407 89.231, 292.380 82.984, 287.515 78.255 C 285.071 75.880, 281.667 70.992, 279.949 67.394 C 277.223 61.681, 276.830 59.804, 276.850 52.594 C 276.869 45.888, 277.355 43.284, 279.436 38.733 C 280.846 35.650, 282 32.649, 282 32.064 C 282 30.420, 278.008 30.954, 272.500 33.337 M 297.619 38.991 C 286.010 42.643, 283.233 59.080, 292.761 67.750 C 295.936 70.639, 296.983 71, 302.180 71 C 309.987 71, 313.740 68.716, 317.624 61.599 C 320.511 56.311, 317.386 45.922, 311.576 41.490 C 307.994 38.758, 301.854 37.659, 297.619 38.991 M 285 218.895 C 285 220.061, 275.044 225.550, 273.634 225.161 C 271.915 224.688, 268 228.091, 268 230.058 C 268 231.165, 267.329 233.094, 266.509 234.346 C 258.661 246.324, 262.001 269.226, 272.695 276.762 C 281.480 282.953, 283.570 283.486, 299 283.474 C 312.577 283.463, 313.755 283.308, 317.500 281.034 C 325.674 276.072, 328.050 273.681, 331.043 267.410 C 339.552 249.582, 333.174 229.916, 316.490 222.538 C 312.401 220.730, 308.415 219.915, 301.697 219.516 C 296.638 219.215, 290.813 218.711, 288.750 218.397 C 286.395 218.037, 285 218.223, 285 218.895 M 156.500 220 C 156.130 220.599, 149.501 221, 139.976 221 C 125.353 221, 123.988 221.154, 123.050 222.907 C 121.682 225.463, 121.687 278.546, 123.056 281.104 C 123.935 282.746, 125.255 283, 132.928 283 C 140.083 283, 141.903 282.696, 142.393 281.418 C 142.727 280.548, 143 276.048, 143 271.418 L 143 263 157.465 263 C 170.742 263, 172.015 262.841, 172.965 261.066 C 174.383 258.415, 174.271 249.671, 172.800 248.200 C 171.979 247.379, 167.089 247, 157.300 247 L 143 247 143 243.934 C 143 239.543, 144.663 237, 147.535 237 C 148.891 237, 150 237.505, 150 238.122 C 150 238.937, 150.361 238.946, 151.317 238.152 C 152.091 237.510, 158.379 236.944, 166.567 236.779 L 180.500 236.500 181.005 230.157 C 181.282 226.669, 181.162 223.600, 180.738 223.338 C 180.314 223.076, 180.195 222.494, 180.472 222.045 C 181.302 220.702, 177.538 220.185, 168.450 220.394 C 163.728 220.502, 159.644 220.233, 159.374 219.795 C 158.694 218.696, 157.242 218.800, 156.500 220 M 208.982 219.975 C 198.404 222.674, 190.989 228.345, 186.720 237 C 184.852 240.786, 184.501 243.166, 184.505 252 C 184.509 261.177, 184.820 263.108, 186.972 267.330 C 189.927 273.127, 195.584 278.453, 201.878 281.363 C 205.877 283.212, 208.319 283.500, 220 283.500 C 232.875 283.500, 233.768 283.366, 239.282 280.617 C 250.661 274.943, 255.753 265.839, 256.130 250.500 C 256.290 243.970, 255.908 241.627, 254.053 237.749 C 251.158 231.701, 242.772 224.039, 236.422 221.642 C 230.824 219.528, 214.595 218.542, 208.982 219.975 M 507.500 220 C 507.142 220.579, 501.692 221, 494.548 221 C 484.223 221, 482.115 221.258, 481.607 222.582 C 481.273 223.452, 481 236.897, 481 252.459 C 481 274.680, 481.283 280.990, 482.320 281.851 C 483.200 282.581, 492.795 282.981, 511.049 283.050 L 538.457 283.154 540.332 280.838 C 541.805 279.019, 542.113 277.371, 541.764 273.169 C 541.507 270.073, 540.726 267.440, 539.910 266.923 C 539.135 266.432, 530.288 266.024, 520.250 266.015 L 502 266 502 262.527 L 502 259.053 516.750 258.777 L 531.500 258.500 531.800 252.163 C 531.980 248.351, 531.633 245.262, 530.928 244.413 C 530.021 243.320, 526.612 243, 515.878 243 L 502 243 502 240 L 502 237 520.965 237 C 542.455 237, 542 237.178, 542 228.757 C 542 222.482, 540.623 221.234, 533 220.599 C 522.590 219.732, 515.637 219.701, 513.683 220.512 C 512.644 220.942, 511.380 220.780, 510.733 220.133 C 509.335 218.735, 508.308 218.693, 507.500 220 M 51.900 221.061 C 50.016 222.224, 49.240 279.379, 51.079 281.595 C 52.857 283.737, 69.562 283.585, 70.393 281.418 C 70.727 280.548, 71 275.091, 71 269.291 L 71 258.746 76.010 259.227 C 78.766 259.492, 81.820 260.432, 82.798 261.317 C 83.775 262.202, 86.538 266.655, 88.936 271.213 C 95.389 283.475, 94.698 283, 106.088 283 C 118.056 283, 118.672 282.225, 113.774 273.334 C 111.973 270.066, 109.376 265.264, 108.002 262.662 C 105.419 257.770, 99.501 251, 97.807 251 C 97.276 251, 98.790 249.032, 101.171 246.626 C 106.022 241.725, 115.490 224.719, 114.624 222.462 C 114.184 221.316, 111.930 221, 104.186 221 C 92.759 221, 93.458 220.541, 87.088 232.238 C 82.267 241.089, 80.081 243, 74.777 243 L 71 243 71 232.559 C 71 225.294, 70.620 221.878, 69.750 221.328 C 68.004 220.225, 53.603 220.009, 51.900 221.061 M 343.667 221.667 C 343.300 222.033, 343 235.478, 343 251.544 C 343 275.783, 343.246 280.959, 344.444 281.953 C 345.492 282.823, 351.313 283.053, 365.694 282.793 C 387.979 282.389, 392.858 281.237, 400.695 274.529 C 406.974 269.154, 410.002 261.725, 409.990 251.723 C 409.980 243.143, 407.433 235.249, 403.670 232.137 C 402.764 231.387, 402.249 230.405, 402.527 229.956 C 403.079 229.063, 401.284 227.675, 399.162 227.354 C 398.427 227.242, 397.007 226.412, 396.009 225.508 C 392.496 222.329, 383.341 221.073, 363.417 221.036 C 352.921 221.016, 344.033 221.300, 343.667 221.667 M 419.702 221.632 C 419.316 222.018, 419 235.710, 419 252.060 C 419 278.244, 419.188 281.858, 420.582 282.393 C 421.452 282.727, 433.512 283, 447.382 283 C 465.663 283, 472.930 282.670, 473.800 281.800 C 474.471 281.129, 475 277.911, 475 274.500 C 475 271.089, 474.471 267.871, 473.800 267.200 C 472.962 266.362, 467.538 266, 455.819 266 L 439.038 266 438.769 243.750 L 438.500 221.500 429.452 221.215 C 424.475 221.058, 420.087 221.246, 419.702 221.632 M 213.500 236.900 C 212.400 237.385, 210.382 238.984, 209.016 240.454 C 206.944 242.684, 206.472 244.334, 206.164 250.416 C 205.892 255.806, 206.226 258.537, 207.447 260.897 C 212.362 270.402, 228.518 270.293, 232.446 260.728 C 235.883 252.362, 235.101 245.383, 230.100 239.785 C 227.652 237.046, 226.551 236.609, 221.399 236.334 C 218.154 236.161, 214.600 236.415, 213.500 236.900 M 291.096 237.209 C 286.140 239.871, 284.500 243.511, 284.500 251.848 C 284.500 258.384, 284.850 259.994, 286.815 262.492 C 293.098 270.479, 306.621 269.412, 310.861 260.595 C 314.205 253.641, 313.006 243.233, 308.358 238.866 C 305.421 236.108, 295.008 235.108, 291.096 237.209 M 364.170 252.128 L 363.894 267.256 372.631 266.798 C 381.282 266.344, 381.400 266.302, 384.640 262.554 C 388.899 257.627, 389.903 251.654, 387.521 245.417 C 386.576 242.942, 384.709 240.200, 383.371 239.324 C 380.524 237.458, 373 236.352, 373 237.800 C 373 238.342, 372.348 239.036, 371.551 239.342 C 370.582 239.714, 370.286 239.418, 370.658 238.449 C 371.076 237.360, 370.374 237, 367.830 237 L 364.446 237 364.170 252.128 M 296 286.535 C 296 287.760, 296.404 287.854, 298 287 C 299.100 286.411, 300 285.720, 300 285.465 C 300 285.209, 299.100 285, 298 285 C 296.869 285, 296 285.667, 296 286.535"
          stroke="none" fill="#ffffff" fill-rule="evenodd"/>
    <path d="M 272.500 33.337 C 265.547 36.345, 256.933 42.103, 253.780 45.850 C 252.322 47.582, 250.649 49, 250.062 49 C 249.476 49, 246.909 51.813, 244.358 55.250 C 216.675 92.553, 231.383 143.679, 274.500 160.022 C 287.690 165.021, 306.010 165.047, 317.500 160.082 C 319.700 159.132, 323.525 157.508, 326 156.475 C 333.131 153.497, 340.002 148.791, 346.750 142.265 L 353 136.219 353 130.297 C 353 118.743, 345.110 108.499, 330.500 101.085 C 326.100 98.852, 321.931 97.020, 321.236 97.013 C 320.541 97.006, 319.191 96.601, 318.236 96.114 C 317.281 95.627, 314.025 94.175, 311 92.888 C 302.407 89.231, 292.380 82.984, 287.515 78.255 C 285.071 75.880, 281.667 70.992, 279.949 67.394 C 277.223 61.681, 276.830 59.804, 276.850 52.594 C 276.869 45.888, 277.355 43.284, 279.436 38.733 C 280.846 35.650, 282 32.649, 282 32.064 C 282 30.420, 278.008 30.954, 272.500 33.337 M 272.768 34.466 C 266.075 37.246, 255.704 44.276, 253.634 47.436 C 252.841 48.645, 251.250 52.689, 250.097 56.423 C 246.315 68.666, 247.664 83.331, 253.738 96 C 257.646 104.151, 269.433 115.347, 280.516 121.435 C 303.747 134.197, 312 143.304, 312 156.178 C 312 158.280, 312.405 160, 312.900 160 C 313.395 160, 317.702 158.367, 322.472 156.370 C 332.859 152.022, 344.146 144.166, 348.808 138.040 C 351.936 133.929, 352.151 133.194, 351.548 128.653 C 350.262 118.957, 344.137 110.652, 333.875 104.688 C 331.469 103.290, 324.775 100.275, 319 97.987 C 295.653 88.740, 284.263 80.462, 278.427 68.500 C 275.786 63.086, 275.500 61.523, 275.500 52.500 C 275.500 43.440, 275.758 42.042, 278.250 37.624 C 279.762 34.942, 281 32.580, 281 32.374 C 281 31.507, 278.144 32.233, 272.768 34.466 M 297.619 38.991 C 286.010 42.643, 283.233 59.080, 292.761 67.750 C 295.936 70.639, 296.983 71, 302.180 71 C 309.987 71, 313.740 68.716, 317.624 61.599 C 320.511 56.311, 317.386 45.922, 311.576 41.490 C 307.994 38.758, 301.854 37.659, 297.619 38.991 M 294.832 41.709 C 285.460 47.523, 286.117 62.326, 295.994 67.876 C 308.558 74.938, 321.873 61.206, 315.248 48.020 C 311.626 40.809, 301.384 37.643, 294.832 41.709 M 245.148 56.188 C 229.900 76.383, 227.216 103.270, 238.178 126 C 246.020 142.260, 263.253 155.997, 281.426 160.475 C 288.234 162.153, 305.811 162.853, 307.948 161.532 C 309.527 160.556, 309.213 151.449, 307.455 147.218 C 304.709 140.612, 296.415 133.394, 281.179 124.354 C 262.763 113.426, 256.335 106.910, 250.717 93.477 C 245.625 81.303, 244.932 70.356, 248.406 57.001 C 249.192 53.977, 249.688 51.355, 249.508 51.175 C 249.328 50.995, 247.366 53.250, 245.148 56.188 M 285 218.858 C 285 220.051, 275.070 225.557, 273.634 225.161 C 271.940 224.694, 268 228.078, 268 229.999 C 268 231.073, 267.102 233.425, 266.004 235.226 C 264.906 237.027, 264.006 239.151, 264.004 239.946 C 264.002 240.742, 265.160 239.065, 266.578 236.220 C 271.191 226.962, 280.375 221.497, 293.680 220.092 C 300.494 219.372, 300.841 219.249, 296.375 219.133 C 293.556 219.060, 289.844 218.719, 288.125 218.375 C 286.129 217.976, 285 218.150, 285 218.858 M 156.500 220 C 156.160 220.550, 156.835 221, 158 221 C 159.165 221, 159.840 220.550, 159.500 220 C 159.160 219.450, 158.485 219, 158 219 C 157.515 219, 156.840 219.450, 156.500 220 M 210.500 219.619 C 206.133 220.735, 201.883 222.216, 202.184 222.518 C 202.359 222.693, 204.963 222.198, 207.969 221.418 C 210.976 220.638, 216.390 220, 220 220 C 223.610 220, 229.024 220.638, 232.031 221.418 C 238.256 223.033, 239.701 222.821, 234.801 221.012 C 231.344 219.736, 213.948 218.739, 210.500 219.619 M 306.628 219.945 C 307.641 220.864, 314.649 222.316, 313.756 221.423 C 313.427 221.094, 311.493 220.449, 309.457 219.990 C 307.421 219.531, 306.148 219.511, 306.628 219.945 M 507.500 220 C 507.160 220.550, 507.835 221, 509 221 C 510.165 221, 510.840 220.550, 510.500 220 C 510.160 219.450, 509.485 219, 509 219 C 508.515 219, 507.840 219.450, 507.500 220 M 514.344 220.250 C 514.090 220.662, 517.846 220.933, 522.691 220.850 C 531.746 220.696, 530.952 220.280, 520.653 219.783 C 517.437 219.627, 514.598 219.838, 514.344 220.250 M 58.250 220.716 C 59.763 220.945, 62.237 220.945, 63.750 220.716 C 65.263 220.487, 64.025 220.300, 61 220.300 C 57.975 220.300, 56.737 220.487, 58.250 220.716 M 166.768 220.725 C 168.565 220.947, 171.265 220.943, 172.768 220.715 C 174.271 220.486, 172.800 220.304, 169.500 220.310 C 166.200 220.315, 164.971 220.502, 166.768 220.725 M 68.711 222.143 C 69.419 223.001, 70.068 227.751, 70.270 233.556 L 70.618 243.500 70.559 232.581 C 70.512 223.799, 70.207 221.566, 69 221.169 C 67.787 220.769, 67.732 220.956, 68.711 222.143 M 92.806 222.750 C 91.979 223.713, 89.405 227.982, 87.088 232.238 C 84.770 236.493, 81.902 240.656, 80.714 241.488 C 79.527 242.319, 79.073 243, 79.706 243 C 81.653 243, 83.754 240.260, 88.548 231.464 C 91.082 226.816, 93.908 222.573, 94.828 222.037 C 95.747 221.500, 96.007 221.047, 95.405 221.030 C 94.803 221.014, 93.633 221.787, 92.806 222.750 M 113 222.006 C 114.270 222.832, 113.736 224.445, 109.522 232.518 C 104.538 242.065, 101.127 246.672, 97.458 248.808 C 95.599 249.891, 95.671 250.085, 98.889 252.655 C 100.753 254.144, 104.015 258.051, 106.139 261.336 C 110.432 267.979, 111.371 268.195, 107.541 261.659 C 104.837 257.047, 99.313 251, 97.802 251 C 97.274 251, 98.790 249.032, 101.171 246.626 C 106.022 241.725, 115.490 224.719, 114.624 222.462 C 114.315 221.658, 113.486 221.007, 112.781 221.015 C 111.884 221.026, 111.950 221.323, 113 222.006 M 343.667 221.667 C 343.300 222.033, 343 235.478, 343 251.544 C 343 275.783, 343.246 280.959, 344.444 281.953 C 345.492 282.823, 351.313 283.053, 365.694 282.793 C 383.678 282.467, 386.047 282.217, 391.441 280.074 C 397.289 277.750, 407 269.527, 407 266.898 C 407 266.239, 405.669 267.537, 404.042 269.783 C 397.126 279.331, 387.314 282.155, 362.384 281.774 L 344.500 281.500 344.234 252.621 C 344.046 232.149, 344.300 223.343, 345.107 222.371 C 346.234 221.013, 344.949 220.384, 343.667 221.667 M 379.250 221.689 C 380.212 221.941, 381.788 221.941, 382.750 221.689 C 383.712 221.438, 382.925 221.232, 381 221.232 C 379.075 221.232, 378.288 221.438, 379.250 221.689 M 419.667 221.667 C 419.300 222.033, 419 235.710, 419 252.060 C 419 278.244, 419.188 281.858, 420.582 282.393 C 421.452 282.727, 433.512 283, 447.382 283 C 465.663 283, 472.930 282.670, 473.800 281.800 C 474.471 281.129, 475 277.911, 475 274.500 C 475 271.089, 474.471 267.871, 473.800 267.200 C 472.943 266.343, 467.729 266.061, 455.550 266.214 L 438.500 266.428 456 266.964 L 473.500 267.500 473.500 274.500 L 473.500 281.500 447 281.500 L 420.500 281.500 420.235 252.069 C 420.028 229.189, 420.251 222.458, 421.235 221.834 C 421.973 221.365, 422.049 221.024, 421.417 221.015 C 420.821 221.007, 420.033 221.300, 419.667 221.667 M 481.607 222.582 C 481.273 223.452, 481 236.897, 481 252.459 C 481 274.680, 481.283 280.990, 482.320 281.851 C 483.200 282.581, 492.795 282.981, 511.049 283.050 C 538.095 283.152, 538.480 283.125, 540.228 280.966 C 541.419 279.496, 541.954 277.257, 541.859 274.139 L 541.718 269.500 541.084 274.725 C 540.735 277.599, 539.981 280.419, 539.408 280.992 C 538.724 281.676, 528.802 281.941, 510.434 281.766 L 482.500 281.500 482.234 252.621 C 482.046 232.149, 482.300 223.343, 483.107 222.371 C 483.810 221.524, 483.857 221, 483.229 221 C 482.671 221, 481.941 221.712, 481.607 222.582 M 539.429 222.571 C 540.426 223.569, 541 225.918, 541 229 C 541 232.082, 540.426 234.431, 539.429 235.429 C 538.564 236.293, 538.323 237, 538.893 237 C 540.601 237, 542 233.396, 542 229 C 542 224.604, 540.601 221, 538.893 221 C 538.323 221, 538.564 221.707, 539.429 222.571 M 180 229.358 C 180 232.919, 179.539 236.062, 178.975 236.342 C 178.411 236.621, 178.524 236.736, 179.225 236.596 C 180.633 236.316, 182.039 224.142, 180.755 223.348 C 180.340 223.092, 180 225.796, 180 229.358 M 196.486 225.148 C 194.844 226.329, 192.408 228.692, 191.073 230.398 C 188.776 233.334, 188.857 233.307, 192.573 229.899 C 194.733 227.919, 197.613 225.556, 198.973 224.649 C 200.332 223.742, 201.001 223, 200.458 223 C 199.916 223, 198.128 223.967, 196.486 225.148 M 242.747 225.932 C 251.380 232.185, 254.905 239.690, 255.169 252.376 L 255.338 260.500 255.954 252 C 256.506 244.385, 256.319 242.952, 254.162 238.238 C 251.862 233.210, 242.218 223, 239.769 223 C 239.181 223, 240.521 224.319, 242.747 225.932 M 321.097 225.941 C 328.997 231.173, 332.559 237.979, 333.950 250.500 C 334.686 257.120, 334.736 257.225, 334.864 252.432 C 335.034 246.106, 332.637 237.672, 329.264 232.722 C 326.734 229.010, 319.544 223, 317.632 223 C 317.096 223, 318.655 224.323, 321.097 225.941 M 390 223.716 C 390.825 224.023, 392.850 224.910, 394.500 225.687 L 397.500 227.099 395.139 225.049 C 393.841 223.922, 391.816 223.036, 390.639 223.079 C 389.174 223.133, 388.972 223.334, 390 223.716 M 50.220 252.050 C 50.057 273.175, 50.312 280.912, 51.200 281.800 C 51.949 282.549, 55.665 283, 61.093 283 C 68.097 283, 69.904 282.693, 70.393 281.418 C 70.727 280.548, 70.910 275.036, 70.801 269.168 L 70.601 258.500 70.051 270 L 69.500 281.500 60.750 281.789 C 55.938 281.948, 51.905 281.948, 51.789 281.789 C 51.672 281.630, 51.321 268.450, 51.008 252.500 L 50.440 223.500 50.220 252.050 M 122.400 238.500 C 122.401 246.750, 122.556 249.992, 122.744 245.704 C 122.932 241.417, 122.931 234.667, 122.742 230.704 C 122.552 226.742, 122.399 230.250, 122.400 238.500 M 401.791 231.389 C 407.603 237.694, 409.277 243.012, 408.853 253.820 C 408.659 258.767, 408.831 262.293, 409.235 261.657 C 409.639 261.021, 409.972 256.675, 409.975 252 C 409.979 245.186, 409.518 242.508, 407.649 238.500 C 406.367 235.750, 404.577 232.887, 403.670 232.137 C 402.764 231.387, 402.249 230.405, 402.527 229.956 C 403.075 229.069, 401.288 227.676, 399.197 227.359 C 398.480 227.250, 399.648 229.064, 401.791 231.389 M 211.420 236.886 C 209.726 237.919, 207.588 240.348, 206.670 242.283 C 204.571 246.706, 204.466 257.066, 206.480 260.961 C 208.059 264.015, 212.540 268.002, 214.385 267.996 C 214.998 267.994, 214.059 267.114, 212.299 266.040 C 207.314 263.001, 205.733 258.957, 206.168 250.352 C 206.507 243.622, 206.814 242.725, 209.789 239.750 C 212.832 236.706, 213.480 236.500, 219.997 236.500 C 226.145 236.500, 227.255 236.801, 229.538 239.083 C 230.959 240.504, 232.749 243.429, 233.517 245.583 C 234.284 247.737, 234.932 248.695, 234.956 247.710 C 235.034 244.517, 231.056 238.080, 228.040 236.521 C 223.891 234.375, 215.225 234.566, 211.420 236.886 M 291.500 235.954 C 284.896 238.686, 280.812 250.921, 283.975 258.500 C 284.491 259.736, 284.613 258.400, 284.295 255 C 283.644 248.054, 285.238 242.064, 288.569 238.935 C 290.828 236.813, 292.101 236.500, 298.485 236.500 C 302.513 236.500, 305.289 236.169, 304.655 235.765 C 303.113 234.784, 294.013 234.915, 291.500 235.954 M 363.225 251.750 L 363.500 267.500 370.500 267.580 L 377.500 267.660 370.700 267.283 L 363.900 266.906 364.173 251.953 L 364.446 237 367.830 237 C 370.374 237, 371.076 237.360, 370.658 238.449 C 370.286 239.418, 370.582 239.714, 371.551 239.342 C 372.348 239.036, 373 238.342, 373 237.800 C 373 236.528, 379.836 237.307, 382.856 238.923 C 384.129 239.604, 386.022 242.038, 387.063 244.331 C 388.104 246.624, 388.966 247.915, 388.978 247.200 C 389.022 244.578, 385.817 239.859, 382.701 237.960 C 380.209 236.440, 377.668 236.007, 371.225 236.004 L 362.949 236 363.225 251.750 M 142.125 242.250 C 142.249 247.454, 142.256 247.465, 142.910 243.500 C 143.273 241.300, 143.918 238.938, 144.344 238.250 C 144.837 237.454, 144.552 237, 143.559 237 C 142.329 237, 142.026 238.108, 142.125 242.250 M 501.232 240 C 501.232 241.925, 501.438 242.713, 501.689 241.750 C 501.941 240.787, 501.941 239.213, 501.689 238.250 C 501.438 237.287, 501.232 238.075, 501.232 240 M 262.641 244.210 C 262.303 245.470, 262.089 249.200, 262.165 252.500 C 262.299 258.356, 262.319 258.307, 263 250.500 C 263.738 242.052, 263.647 240.455, 262.641 244.210 M 529.750 243.998 C 530.438 244.769, 531 247.920, 531 251 C 531 254.107, 530.443 257.190, 529.750 257.925 C 528.741 258.994, 528.789 259.162, 530 258.795 C 531.091 258.465, 531.580 256.565, 531.792 251.828 C 532.030 246.516, 531.754 245.064, 530.292 243.956 C 528.762 242.795, 528.683 242.801, 529.750 243.998 M 184.343 251.500 C 184.346 255.900, 184.522 257.576, 184.733 255.224 C 184.945 252.872, 184.942 249.272, 184.727 247.224 C 184.512 245.176, 184.339 247.100, 184.343 251.500 M 171.750 247.998 C 173.117 249.531, 173.438 258.762, 172.193 260.721 C 171.655 261.568, 166.989 262.028, 156.959 262.221 L 142.500 262.500 142 272 L 141.500 281.500 133.655 281.794 C 128.732 281.978, 125.287 281.653, 124.405 280.921 C 123.351 280.047, 122.946 276.475, 122.783 266.628 L 122.565 253.500 122.253 266.260 C 122.063 273.995, 122.360 279.803, 123.005 281.010 C 123.946 282.767, 125.108 283, 132.928 283 C 140.083 283, 141.903 282.696, 142.393 281.418 C 142.727 280.548, 143 276.048, 143 271.418 L 143 263 157.465 263 C 174.024 263, 174 263.013, 174 254.188 C 174 250.651, 173.502 248.868, 172.250 247.921 C 170.761 246.794, 170.687 246.806, 171.750 247.998 M 313.232 252 C 313.232 253.925, 313.438 254.713, 313.689 253.750 C 313.941 252.787, 313.941 251.213, 313.689 250.250 C 313.438 249.287, 313.232 250.075, 313.232 252 M 233 258.766 C 231.943 262.082, 230.497 264.139, 228.102 265.735 C 226.233 266.981, 225.186 268, 225.775 268 C 229.254 268, 235.979 258.362, 234.830 255.022 C 234.649 254.493, 233.825 256.178, 233 258.766 M 311.577 258.723 C 310.878 261.832, 305.996 267, 303.757 267 C 303.157 267, 302.925 267.258, 303.240 267.574 C 303.556 267.889, 305.145 267.459, 306.772 266.618 C 309.781 265.062, 313.479 258.896, 312.718 256.705 C 312.488 256.042, 311.974 256.950, 311.577 258.723 M 333.116 259.168 C 333.052 260.086, 332.741 261.661, 332.424 262.668 C 331.879 264.404, 331.909 264.407, 332.992 262.719 C 333.620 261.739, 333.931 260.164, 333.683 259.219 C 333.277 257.670, 333.221 257.665, 333.116 259.168 M 81 260.285 C 82.430 261.003, 85.280 264.743, 87.659 269.020 C 95.894 283.832, 94.096 282.460, 105.690 282.784 C 118.002 283.129, 118.654 282.409, 113.932 273.690 C 109.836 266.128, 109.158 266.388, 113.020 274.040 C 114.697 277.362, 115.802 280.512, 115.475 281.040 C 114.578 282.491, 97.681 282.242, 95.841 280.750 C 94.994 280.063, 92.167 275.450, 89.559 270.500 C 84.710 261.295, 82.802 258.989, 80.059 259.015 C 79.133 259.023, 79.515 259.539, 81 260.285 M 384.615 262.616 C 382.587 265.157, 382.347 265.800, 383.753 264.922 C 384.826 264.252, 386.252 262.827, 386.921 261.755 C 389.025 258.387, 387.550 258.937, 384.615 262.616 M 501.168 262.750 L 501 267 519.800 267 C 533.089 267, 538.952 267.352, 539.800 268.200 C 540.603 269.003, 541 269.038, 541 268.307 C 541 266.326, 538.028 266, 519.979 266 L 502.121 266 501.728 262.250 L 501.336 258.500 501.168 262.750 M 185.090 261.515 C 184.967 264.257, 188.533 270.799, 192.312 274.766 C 195.781 278.407, 204.288 283.018, 207.446 282.967 C 208.576 282.949, 207.247 282.155, 204.492 281.203 C 195.457 278.079, 188.535 271.157, 186.147 262.861 C 185.546 260.771, 185.146 260.262, 185.090 261.515 M 251.676 267.213 C 249.793 271.085, 247.328 274.185, 244.282 276.511 C 241.769 278.430, 240.164 280, 240.715 280 C 242.899 280, 250.883 271.780, 252.931 267.423 C 254.125 264.883, 254.966 262.490, 254.801 262.105 C 254.635 261.720, 253.229 264.019, 251.676 267.213 M 285.906 262.824 C 286.513 263.959, 287.503 265.193, 288.105 265.565 C 288.889 266.050, 288.886 265.656, 288.094 264.176 C 287.487 263.041, 286.497 261.807, 285.895 261.435 C 285.111 260.950, 285.114 261.344, 285.906 262.824 M 264.001 263.822 C 263.999 266.229, 269.185 274.040, 272.368 276.425 C 276.627 279.616, 283.529 283.005, 285.710 282.976 C 286.695 282.963, 284.840 281.859, 281.590 280.523 C 274.836 277.746, 268.926 272.448, 266.009 266.555 C 264.905 264.325, 264.001 263.095, 264.001 263.822 M 330.018 267.957 C 327.247 274.647, 317.351 281.059, 306.879 282.951 L 301.500 283.923 307.884 283.397 C 314.123 282.882, 315.489 282.330, 323.313 277.160 C 326.873 274.808, 332.842 266.509, 331.756 265.423 C 331.488 265.155, 330.706 266.295, 330.018 267.957 M 217.762 268.707 C 219.006 268.946, 220.806 268.937, 221.762 268.687 C 222.718 268.437, 221.700 268.241, 219.500 268.252 C 217.300 268.263, 216.518 268.468, 217.762 268.707 M 296.762 268.707 C 298.006 268.946, 299.806 268.937, 300.762 268.687 C 301.718 268.437, 300.700 268.241, 298.500 268.252 C 296.300 268.263, 295.518 268.468, 296.762 268.707 M 234.500 281.616 C 230.527 283.012, 230.524 283.018, 233.969 282.492 C 235.877 282.201, 237.879 281.521, 238.419 280.981 C 239.577 279.823, 239.621 279.816, 234.500 281.616 M 211.250 283.689 C 212.213 283.941, 213.787 283.941, 214.750 283.689 C 215.713 283.438, 214.925 283.232, 213 283.232 C 211.075 283.232, 210.287 283.438, 211.250 283.689 M 225.250 283.689 C 226.213 283.941, 227.787 283.941, 228.750 283.689 C 229.713 283.438, 228.925 283.232, 227 283.232 C 225.075 283.232, 224.287 283.438, 225.250 283.689 M 290.250 283.689 C 291.212 283.941, 292.788 283.941, 293.750 283.689 C 294.712 283.438, 293.925 283.232, 292 283.232 C 290.075 283.232, 289.288 283.438, 290.250 283.689 M 296 286.535 C 296 287.760, 296.404 287.854, 298 287 C 299.100 286.411, 300 285.720, 300 285.465 C 300 285.209, 299.100 285, 298 285 C 296.869 285, 296 285.667, 296 286.535"
          stroke="none" fill="#fafafb" fill-rule="evenodd"/>
</svg>